#VRML V2.0 utf8
Transform {
  children [
    Shape {
      appearance Appearance {
        material Material {
          diffuseColor 0.05 0.35 0.15
          emissiveColor 0 0 0
          specularColor 0.1 0.1 0.1
          ambientIntensity 0.2
          transparency 0
          shininess 0.1
        }
      }
      geometry IndexedFaceSet {
        ccw TRUE
        solid FALSE
        coord Coordinate {
          point [
            -1.3622 -1.1024 3.3465,
            3.3622 -1.1024 3.3465,
            3.3622 0.4724 3.3465,
            -1.3622 0.4724 3.3465,
            -1.3622 -1.1024 3.9764,
            3.3622 -1.1024 3.9764,
            3.3622 0.4724 3.9764,
            -1.3622 0.4724 3.9764
          ]
        }
        coordIndex [ 1,2,3,0,-1, 4,5,6,7,-1, 0,4,7,3,-1, 1,5,4,0,-1, 2,6,5,1,-1, 3,7,6,2,-1 ]
      }
    },
    Shape {
      appearance Appearance {
        material Material {
          diffuseColor 0.2 0.2 0.2
          emissiveColor 0 0 0
          specularColor 0.1 0.1 0.1
          ambientIntensity 0.2
          transparency 0
          shininess 0.1
        }
      }
      geometry IndexedFaceSet {
        ccw TRUE
        solid FALSE
        coord Coordinate {
          point [
            -0.1811 -0.9055 3.9764,
            2.1811 -0.9055 3.9764,
            2.1811 0.2756 3.9764,
            -0.1811 0.2756 3.9764,
            -0.1811 -0.9055 4.7638,
            2.1811 -0.9055 4.7638,
            2.1811 0.2756 4.7638,
            -0.1811 0.2756 4.7638
          ]
        }
        coordIndex [ 1,2,3,0,-1, 4,5,6,7,-1, 0,4,7,3,-1, 1,5,4,0,-1, 2,6,5,1,-1, 3,7,6,2,-1 ]
      }
    }
  ]
}
