#VRML V2.0 utf8
Transform {
  children [
    Shape {
      appearance Appearance {
        material Material {
          diffuseColor 0.05 0.35 0.15
          emissiveColor 0 0 0
          specularColor 0.1 0.1 0.1
          ambientIntensity 0.2
          transparency 0
          shininess 0.1
        }
      }
      geometry IndexedFaceSet {
        ccw TRUE
        solid FALSE
        coord Coordinate {
          point [
            -0.5000 -0.5906 3.3465,
            9.5000 -0.5906 3.3465,
            9.5000 21.4567 3.3465,
            -0.5000 21.4567 3.3465,
            -0.5000 -0.5906 3.9764,
            9.5000 -0.5906 3.9764,
            9.5000 21.4567 3.9764,
            -0.5000 21.4567 3.9764
          ]
        }
        coordIndex [ 1,2,3,0,-1, 4,5,6,7,-1, 0,4,7,3,-1, 1,5,4,0,-1, 2,6,5,1,-1, 3,7,6,2,-1 ]
      }
    },
    Shape {
      appearance Appearance {
        material Material {
          diffuseColor 0.75 0.75 0.78
          emissiveColor 0 0 0
          specularColor 0.1 0.1 0.1
          ambientIntensity 0.2
          transparency 0
          shininess 0.1
        }
      }
      geometry IndexedFaceSet {
        ccw TRUE
        solid FALSE
        coord Coordinate {
          point [
            0.9567 0.0984 3.9764,
            8.0433 0.0984 3.9764,
            8.0433 10.1378 3.9764,
            0.9567 10.1378 3.9764,
            0.9567 0.0984 5.1969,
            8.0433 0.0984 5.1969,
            8.0433 10.1378 5.1969,
            0.9567 10.1378 5.1969
          ]
        }
        coordIndex [ 1,2,3,0,-1, 4,5,6,7,-1, 0,4,7,3,-1, 1,5,4,0,-1, 2,6,5,1,-1, 3,7,6,2,-1 ]
      }
    },
    Shape {
      appearance Appearance {
        material Material {
          diffuseColor 0.55 0.55 0.58
          emissiveColor 0 0 0
          specularColor 0.1 0.1 0.1
          ambientIntensity 0.2
          transparency 0
          shininess 0.1
        }
      }
      geometry IndexedFaceSet {
        ccw TRUE
        solid FALSE
        coord Coordinate {
          point [
            -0.5906 -0.9843 3.9764,
            2.9528 -0.9843 3.9764,
            2.9528 1.7717 3.9764,
            -0.5906 1.7717 3.9764,
            -0.5906 -0.9843 5.2362,
            2.9528 -0.9843 5.2362,
            2.9528 1.7717 5.2362,
            -0.5906 1.7717 5.2362
          ]
        }
        coordIndex [ 1,2,3,0,-1, 4,5,6,7,-1, 0,4,7,3,-1, 1,5,4,0,-1, 2,6,5,1,-1, 3,7,6,2,-1 ]
      }
    },
    Shape {
      appearance Appearance {
        material Material {
          diffuseColor 0.55 0.55 0.58
          emissiveColor 0 0 0
          specularColor 0.1 0.1 0.1
          ambientIntensity 0.2
          transparency 0
          shininess 0.1
        }
      }
      geometry IndexedFaceSet {
        ccw TRUE
        solid FALSE
        coord Coordinate {
          point [
            6.0630 -0.9843 3.9764,
            9.6063 -0.9843 3.9764,
            9.6063 1.7717 3.9764,
            6.0630 1.7717 3.9764,
            6.0630 -0.9843 5.2362,
            9.6063 -0.9843 5.2362,
            9.6063 1.7717 5.2362,
            6.0630 1.7717 5.2362
          ]
        }
        coordIndex [ 1,2,3,0,-1, 4,5,6,7,-1, 0,4,7,3,-1, 1,5,4,0,-1, 2,6,5,1,-1, 3,7,6,2,-1 ]
      }
    }
  ]
}
