#VRML V2.0 utf8
Transform {
  children [
    Shape {
      appearance Appearance {
        material Material {
          diffuseColor 0.05 0.4 0.15
          emissiveColor 0 0 0
          specularColor 0.1 0.1 0.1
          ambientIntensity 0.2
          transparency 0
          shininess 0.1
        }
      }
      geometry IndexedFaceSet {
        ccw TRUE
        solid FALSE
        coord Coordinate {
          point [
            -12.4016 -1.8504 3.3465,
            2.9528 -1.8504 3.3465,
            2.9528 4.8425 3.3465,
            -12.4016 4.8425 3.3465,
            -12.4016 -1.8504 3.9764,
            2.9528 -1.8504 3.9764,
            2.9528 4.8425 3.9764,
            -12.4016 4.8425 3.9764
          ]
        }
        coordIndex [ 1,2,3,0,-1, 4,5,6,7,-1, 0,4,7,3,-1, 1,5,4,0,-1, 2,6,5,1,-1, 3,7,6,2,-1 ]
      }
    },
    Shape {
      appearance Appearance {
        material Material {
          diffuseColor 0.75 0.75 0.78
          emissiveColor 0 0 0
          specularColor 0.1 0.1 0.1
          ambientIntensity 0.2
          transparency 0
          shininess 0.1
        }
      }
      geometry IndexedFaceSet {
        ccw TRUE
        solid FALSE
        coord Coordinate {
          point [
            -8.8583 -1.4567 3.9764,
            -2.1654 -1.4567 3.9764,
            -2.1654 4.4488 3.9764,
            -8.8583 4.4488 3.9764,
            -8.8583 -1.4567 4.9606,
            -2.1654 -1.4567 4.9606,
            -2.1654 4.4488 4.9606,
            -8.8583 4.4488 4.9606
          ]
        }
        coordIndex [ 1,2,3,0,-1, 4,5,6,7,-1, 0,4,7,3,-1, 1,5,4,0,-1, 2,6,5,1,-1, 3,7,6,2,-1 ]
      }
    },
    Shape {
      appearance Appearance {
        material Material {
          diffuseColor 0.85 0.7 0.2
          emissiveColor 0 0 0
          specularColor 0.1 0.1 0.1
          ambientIntensity 0.2
          transparency 0
          shininess 0.1
        }
      }
      geometry IndexedFaceSet {
        ccw TRUE
        solid FALSE
        coord Coordinate {
          point [
            -15.3543 0.2559 2.7559,
            -11.4173 0.2559 2.7559,
            -11.4173 2.7362 2.7559,
            -15.3543 2.7362 2.7559,
            -15.3543 0.2559 5.2362,
            -11.4173 0.2559 5.2362,
            -11.4173 2.7362 5.2362,
            -15.3543 2.7362 5.2362
          ]
        }
        coordIndex [ 1,2,3,0,-1, 4,5,6,7,-1, 0,4,7,3,-1, 1,5,4,0,-1, 2,6,5,1,-1, 3,7,6,2,-1 ]
      }
    }
  ]
}
