#VRML V2.0 utf8
Transform {
  children [
    Shape {
      appearance Appearance {
        material Material {
          diffuseColor 0.15 0.25 0.6
          emissiveColor 0 0 0
          specularColor 0.1 0.1 0.1
          ambientIntensity 0.2
          transparency 0
          shininess 0.1
        }
      }
      geometry IndexedFaceSet {
        ccw TRUE
        solid FALSE
        coord Coordinate {
          point [
            -0.5315 -0.5039 3.3465,
            5.3740 -0.5039 3.3465,
            5.3740 6.5039 3.3465,
            -0.5315 6.5039 3.3465,
            -0.5315 -0.5039 3.9764,
            5.3740 -0.5039 3.9764,
            5.3740 6.5039 3.9764,
            -0.5315 6.5039 3.9764
          ]
        }
        coordIndex [ 1,2,3,0,-1, 4,5,6,7,-1, 0,4,7,3,-1, 1,5,4,0,-1, 2,6,5,1,-1, 3,7,6,2,-1 ]
      }
    },
    Shape {
      appearance Appearance {
        material Material {
          diffuseColor 0.2 0.2 0.2
          emissiveColor 0 0 0
          specularColor 0.1 0.1 0.1
          ambientIntensity 0.2
          transparency 0
          shininess 0.1
        }
      }
      geometry IndexedFaceSet {
        ccw TRUE
        solid FALSE
        coord Coordinate {
          point [
            1.2402 1.8189 3.9764,
            3.6024 1.8189 3.9764,
            3.6024 4.1811 3.9764,
            1.2402 4.1811 3.9764,
            1.2402 1.8189 4.5669,
            3.6024 1.8189 4.5669,
            3.6024 4.1811 4.5669,
            1.2402 4.1811 4.5669
          ]
        }
        coordIndex [ 1,2,3,0,-1, 4,5,6,7,-1, 0,4,7,3,-1, 1,5,4,0,-1, 2,6,5,1,-1, 3,7,6,2,-1 ]
      }
    }
  ]
}
