#VRML V2.0 utf8
Transform {
  children [
    Shape {
      appearance Appearance {
        material Material {
          diffuseColor 0.05 0.35 0.15
          emissiveColor 0 0 0
          specularColor 0.1 0.1 0.1
          ambientIntensity 0.2
          transparency 0
          shininess 0.1
        }
      }
      geometry IndexedFaceSet {
        ccw TRUE
        solid FALSE
        coord Coordinate {
          point [
            -0.5039 -0.5079 3.3465,
            6.5039 -0.5079 3.3465,
            6.5039 23.5079 3.3465,
            -0.5039 23.5079 3.3465,
            -0.5039 -0.5079 3.9764,
            6.5039 -0.5079 3.9764,
            6.5039 23.5079 3.9764,
            -0.5039 23.5079 3.9764
          ]
        }
        coordIndex [ 1,2,3,0,-1, 4,5,6,7,-1, 0,4,7,3,-1, 1,5,4,0,-1, 2,6,5,1,-1, 3,7,6,2,-1 ]
      }
    },
    Shape {
      appearance Appearance {
        material Material {
          diffuseColor 0.75 0.75 0.78
          emissiveColor 0 0 0
          specularColor 0.1 0.1 0.1
          ambientIntensity 0.2
          transparency 0
          shininess 0.1
        }
      }
      geometry IndexedFaceSet {
        ccw TRUE
        solid FALSE
        coord Coordinate {
          point [
            1.4252 -0.5906 3.9764,
            4.5748 -0.5906 3.9764,
            4.5748 1.7717 3.9764,
            1.4252 1.7717 3.9764,
            1.4252 -0.5906 5.1575,
            4.5748 -0.5906 5.1575,
            4.5748 1.7717 5.1575,
            1.4252 1.7717 5.1575
          ]
        }
        coordIndex [ 1,2,3,0,-1, 4,5,6,7,-1, 0,4,7,3,-1, 1,5,4,0,-1, 2,6,5,1,-1, 3,7,6,2,-1 ]
      }
    },
    Shape {
      appearance Appearance {
        material Material {
          diffuseColor 0.55 0.55 0.58
          emissiveColor 0 0 0
          specularColor 0.1 0.1 0.1
          ambientIntensity 0.2
          transparency 0
          shininess 0.1
        }
      }
      geometry IndexedFaceSet {
        ccw TRUE
        solid FALSE
        coord Coordinate {
          point [
            0.6378 19.4882 2.5984,
            5.3622 19.4882 2.5984,
            5.3622 23.8189 2.5984,
            0.6378 23.8189 2.5984,
            0.6378 19.4882 3.3858,
            5.3622 19.4882 3.3858,
            5.3622 23.8189 3.3858,
            0.6378 23.8189 3.3858
          ]
        }
        coordIndex [ 1,2,3,0,-1, 4,5,6,7,-1, 0,4,7,3,-1, 1,5,4,0,-1, 2,6,5,1,-1, 3,7,6,2,-1 ]
      }
    },
    Shape {
      appearance Appearance {
        material Material {
          diffuseColor 0.15 0.15 0.15
          emissiveColor 0 0 0
          specularColor 0.1 0.1 0.1
          ambientIntensity 0.2
          transparency 0
          shininess 0.1
        }
      }
      geometry IndexedFaceSet {
        ccw TRUE
        solid FALSE
        coord Coordinate {
          point [
            0.6378 9.4488 3.9764,
            5.3622 9.4488 3.9764,
            5.3622 14.1732 3.9764,
            0.6378 14.1732 3.9764,
            0.6378 9.4488 4.3701,
            5.3622 9.4488 4.3701,
            5.3622 14.1732 4.3701,
            0.6378 14.1732 4.3701
          ]
        }
        coordIndex [ 1,2,3,0,-1, 4,5,6,7,-1, 0,4,7,3,-1, 1,5,4,0,-1, 2,6,5,1,-1, 3,7,6,2,-1 ]
      }
    }
  ]
}
